<svg width="36" height="50" viewBox="0 0 36 50" fill="none" xmlns="http://www.w3.org/2000/svg">
<path d="M35.9049 45.4667L33.3674 16.7167C33.1768 14.551 31.3924 12.9167 29.2174 12.9167C28.7178 12.9167 28.3112 13.3229 28.3112 13.8229V18.3052C28.3112 18.749 27.9758 19.1365 27.5331 19.1646C27.0477 19.1958 26.6445 18.8115 26.6445 18.3333V8.64583C26.6445 3.87812 22.7664 0 17.9987 0C13.231 0 9.35286 3.87812 9.35286 8.64583V12.9167H6.77994C4.60494 12.9167 2.82056 14.551 2.62994 16.7167L0.0924393 45.4667C-0.121102 47.8964 1.79483 50 4.24348 50H31.7539C34.2029 50 36.1185 47.896 35.9049 45.4667ZM13.207 44.4792H7.16536C6.70515 44.4792 6.33202 44.106 6.33202 43.6458C6.33202 43.1856 6.70515 42.8125 7.16536 42.8125H13.207C13.6672 42.8125 14.0404 43.1856 14.0404 43.6458C14.0404 44.106 13.6672 44.4792 13.207 44.4792ZM13.207 40.3125H7.16536C6.70515 40.3125 6.33202 39.9394 6.33202 39.4792C6.33202 39.019 6.70515 38.6458 7.16536 38.6458H13.207C13.6672 38.6458 14.0404 39.019 14.0404 39.4792C14.0404 39.9394 13.6672 40.3125 13.207 40.3125ZM24.9779 12.9167H13.5924C13.0924 12.9167 12.6862 13.3229 12.6862 13.8229V18.3052C12.6862 18.749 12.3508 19.1365 11.9081 19.1646C11.4226 19.1958 11.0195 18.8115 11.0195 18.3333V8.64583C11.0195 4.79792 14.1508 1.66667 17.9987 1.66667C21.8466 1.66667 24.9779 4.79792 24.9779 8.64583V12.9167Z" fill="#DB3022"/>
</svg>
