<svg width="32" height="32" viewBox="0 0 32 32" fill="none" xmlns="http://www.w3.org/2000/svg">
<path d="M11.0495 0H3.7005C1.66006 0 0 1.66006 0 3.7005V11.0495C0 13.0899 1.66006 14.75 3.7005 14.75H11.0495C13.0899 14.75 14.75 13.0899 14.75 11.0495V3.7005C14.75 1.66006 13.0899 0 11.0495 0ZM12.25 11.0495C12.25 11.7114 11.7114 12.25 11.0495 12.25H3.7005C3.03856 12.25 2.5 11.7114 2.5 11.0495V3.7005C2.5 3.03856 3.03856 2.5 3.7005 2.5H11.0495C11.7114 2.5 12.25 3.03856 12.25 3.7005V11.0495Z" fill="#8E8E93"/>
<path d="M28.25 0H21C18.9323 0 17.25 1.68225 17.25 3.75V11C17.25 13.0677 18.9323 14.75 21 14.75H28.25C30.3177 14.75 32 13.0677 32 11V3.75C32 1.68225 30.3177 0 28.25 0ZM29.5 11C29.5 11.6892 28.9392 12.25 28.25 12.25H21C20.3108 12.25 19.75 11.6892 19.75 11V3.75C19.75 3.06075 20.3108 2.5 21 2.5H28.25C28.9392 2.5 29.5 3.06075 29.5 3.75V11Z" fill="#8E8E93"/>
<path d="M11.0495 17.25H3.7005C1.66006 17.25 0 18.9101 0 20.9505V28.2995C0 30.3399 1.66006 32 3.7005 32H11.0495C13.0899 32 14.75 30.3399 14.75 28.2995V20.9505C14.75 18.9101 13.0899 17.25 11.0495 17.25ZM12.25 28.2995C12.25 28.9614 11.7114 29.5 11.0495 29.5H3.7005C3.03856 29.5 2.5 28.9614 2.5 28.2995V20.9505C2.5 20.2886 3.03856 19.75 3.7005 19.75H11.0495C11.7114 19.75 12.25 20.2886 12.25 20.9505V28.2995Z" fill="#8E8E93"/>
<path d="M28.25 17.25H21C18.9323 17.25 17.25 18.9323 17.25 21V28.25C17.25 30.3177 18.9323 32 21 32H28.25C30.3177 32 32 30.3177 32 28.25V21C32 18.9323 30.3177 17.25 28.25 17.25ZM29.5 28.25C29.5 28.9392 28.9392 29.5 28.25 29.5H21C20.3108 29.5 19.75 28.9392 19.75 28.25V21C19.75 20.3108 20.3108 19.75 21 19.75H28.25C28.9392 19.75 29.5 20.3108 29.5 21V28.25Z" fill="#8E8E93"/>
</svg>
